<?xml version="1.0" encoding="UTF-8"?>
<svg id="Logo" xmlns="http://www.w3.org/2000/svg" version="1.1" viewBox="0 0 308.6 160.3">
  <!-- Generator: Adobe Illustrator 29.4.0, SVG Export Plug-In . SVG Version: 2.1.0 Build 152)  -->
  <defs>
    <style>
      .st0 {
        fill: #88b28c;
      }
    </style>
  </defs>
  <path class="st0" d="M88.1,93.6h-.7v1.1h15.5v-1h-.6c-2.2-.6-2.9-.7-2.9-3.8v-35.9c0-4.2.3-6.6.5-7.9l-.7-.5-12.2,4.7v.7l1.1,1c1,1,1.4,1.6,1.7,2.3.3.7.4,1.5.4,2.7v33.5c0,2.1-.6,2.8-2.1,3.1Z"/>
  <path class="st0" d="M193.6,90v-17.7c0-4.2.3-6.8.5-8.1l-.5-.4-12.4,4.1v.7l1.6,1.6c1,.9,1.6,1.6,1.6,3.4v16.8c0,2.1-.6,2.8-2.1,3.1h-.7v1.1h15.5v-1h-.6c-2.2-.6-2.9-.7-2.9-3.8Z"/>
  <path class="st0" d="M214.7,91.6c-3.1,0-3.4-3-3.4-5.3v-22.1h8v-2.5h-8v-.9c0-2.2.3-3.6.4-5.3l-.7-.5c-3.3,3.5-10.2,6.1-12.7,7v2.2h3.8v13.8c0,4-.3,9.5-.3,10.9,0,4.2,4.5,6.1,8.1,6.1s7-1.2,9.9-4l-.7-.9c-1.3,1-2.9,1.6-4.4,1.6Z"/>
  <path class="st0" d="M255.3,93.6c-2.2-.5-2.9-.6-2.9-3.6v-16.9c0-1,0-1.9-.1-2.7-.5-4.7-3.4-7.5-7.6-7.5s-8.3,2.8-11.4,5.3v-14.2c0-4.2.3-6.6.5-7.9l-.7-.5-12.2,4.7v.7l1.6,1.5c1,1,1.6,2.4,1.6,4.1v33.8c0,2.1-.6,2.8-2.1,3.1h-.7v1.1h15.5v-1h-.6c-2.2-.6-2.9-.7-2.9-3.8v-20c1.7-.9,3.8-2.3,5.7-2.3,3.4,0,4.1,3,4.2,5.9,0,.7,0,1.6,0,2.5v14.4c0,2.1-.6,2.8-2.1,3.1h-.7v1.1h15.5v-1h-.6Z"/>
  <path class="st0" d="M188.1,61.6h0s.6,0,.6,0h0c0-4.3,3.4-7.7,7.7-7.7v-.6c-4.3,0-7.7-3.4-7.7-7.7h0s-.6,0-.6,0h0c0,4.3-3.4,7.7-7.7,7.7v.6c4.3,0,7.7,3.4,7.7,7.7Z"/>
  <path class="st0" d="M93.7,105.3c1.5,0,2.3.6,2.5,1.9l1-.2c-.4-1.6-1.5-2.4-3.5-2.4s-3.4,1-3.4,2.6.8,2.3,2.8,2.7l1,.2c1.7.4,2.1.9,2.1,1.9s-.9,1.9-2.5,1.9c-1.6,0-2.5-.7-2.8-2l-1,.2c.4,1.8,1.6,2.5,3.8,2.5s3.5-1.1,3.5-2.7-.7-2.3-2.9-2.8l-1-.2c-1.6-.4-2-1-2-1.9s.7-1.8,2.4-1.8Z"/>
  <polygon class="st0" points="108.7 104.7 107.4 104.7 102.9 109.7 102.9 104.7 102 104.7 102 114.5 102.9 114.5 102.9 110.9 104.5 109.2 107.9 114.5 109.1 114.5 105.1 108.5 108.7 104.7"/>
  <rect class="st0" x="113.4" y="104.7" width=".9" height="9.8"/>
  <path class="st0" d="M125.6,111.1v2.4h0c-.4-.7-.7-1.4-1.1-2.1l-3.7-6.7h-1.3v9.8h.9v-6.4s0-2.4,0-2.4h0c.4.7.7,1.4,1.1,2.1l3.7,6.7h1.3v-9.8h-.9v6.4Z"/>
  <path class="st0" d="M135.6,105.3c1.4,0,2.2.6,2.7,1.9l.9-.4c-.6-1.6-1.9-2.3-3.6-2.3-2.9,0-4.3,2-4.3,5.1s1.4,5.1,4.3,5.1,3-.8,3.6-2.3l-.8-.4c-.5,1.2-1.3,1.9-2.8,1.9-2.3,0-3.3-1.6-3.3-4.3s1.1-4.3,3.3-4.3Z"/>
  <path class="st0" d="M146.4,104.7l-3.4,9.8h1l.9-2.7h4.3l.9,2.7h1l-3.4-9.8h-1.3ZM148.9,111h-3.7l.7-2c.4-1.2.8-2.3,1.2-3.5h0c.4,1.3.8,2.3,1.2,3.5l.7,2Z"/>
  <path class="st0" d="M161.8,107.4c0-1.8-.9-2.7-3-2.7h-3.4v9.8h.9v-4.1h2.5l2,4.1h1.1l-2.1-4.2c1.3-.3,2-1.3,2-2.8ZM158.8,109.6h-2.4v-4.1h2.4c1.5,0,2.1.7,2.1,1.9s-.6,2.2-2.1,2.2Z"/>
  <polygon class="st0" points="166.6 114.5 172.6 114.5 172.6 113.7 167.6 113.7 167.6 109.8 172.1 109.8 172.1 109 167.6 109 167.6 105.5 172.6 105.5 172.6 104.7 166.6 104.7 166.6 114.5"/>
  <path class="st0" d="M178.2,106.2c0-.5-.3-.7-.8-.7h-.9v2.5h.4v-.9h.4l.4.9h.5l-.5-1c.3-.1.4-.4.4-.7ZM177.4,106.6h-.5v-.7h.5c.2,0,.3,0,.3.3s0,.4-.3.4Z"/>
  <path class="st0" d="M177.3,104.5c-1.2,0-2.2,1-2.2,2.2s1,2.2,2.2,2.2,2.2-1,2.2-2.2-1-2.2-2.2-2.2ZM177.3,108.4c-1,0-1.8-.8-1.8-1.7s.8-1.7,1.8-1.7,1.8.8,1.8,1.7-.8,1.7-1.8,1.7Z"/>
  <path class="st0" d="M120.2,94.9c9.1,0,16.5-7.2,16.5-16s-7.4-16-16.5-16-16.5,7.2-16.5,16,7.4,16,16.5,16ZM120.2,64.5c3.8,0,6.8,6.4,6.8,14.4s-3.1,14.4-6.8,14.4-6.8-6.4-6.8-14.4,3.1-14.4,6.8-14.4Z"/>
  <path class="st0" d="M73.9,64.4c-2.2-.9-4.7-1.4-7.4-1.4-8.5,0-15.4,5.3-15.4,11.9s4.8,10.1,11.4,11.5h-.2c-5,1.9-7.4,4.4-7.4,6.6s2.3,4.2,5.9,5c0,0,3.7.9,8.7.9s4.6.3,5.6.8c1.2.6,1.9,2,1.9,3.2,0,3.6-5.8,8-11.3,8.9,0,0-1.8.4-2.8,0l-1.2-.6-.5.5v3c2.2.4,7-.9,8-1.2,6.8-2.2,15.3-7,15.3-15.1s-1.2-5.2-5.6-6.3c-1.3-.4-4.1-.6-6.8-.6h-4.6c-1.9,0-4.5-.1-5.2-.3-.7-.2-1.4-.7-1.4-1.3s.1-1.4,4-3c.4,0,1.4,0,2.2,0,.1,0,.9,0,1.1,0h0c7.7-.6,13.8-5.7,13.8-11.8s-1.5-5.8-3.9-7.9h6.4s0-2.5,0-2.5l-.7-.5-9.8.4ZM66.5,84.9c-3,0-5.4-4.6-5.4-10.2s2.4-10.2,5.4-10.2,5.4,4.6,5.4,10.2-2.4,10.2-5.4,10.2Z"/>
  <path class="st0" d="M173.7,84.3l-6.6-15.4c-.3-.6-.5-1.3-.5-2s.4-1.8,1.7-2h1.4v-1.1h-15.3v1l.5.3c.9.5,1.5,1.6,2,2.7l2,4.4-5.1,12.1-5.4-15.5c-.2-.5-.3-1.1-.3-1.8,0-1,.4-1.9,1.6-2.1h.8v-1.1h-14.8v1c1.3.6,2.1,2,3.3,5.1l9.4,24.7h4.1l7.9-19.1,8.2,19.1h4.1l7.8-19.5v-.7l-1.9-1.7-4.9,11.5Z"/>
</svg>